<?xml version="1.0" encoding="UTF-8" standalone="no"?>
<svg
   xmlns:osb="http://www.openswatchbook.org/uri/2009/osb"
   xmlns:dc="http://purl.org/dc/elements/1.1/"
   xmlns:cc="http://creativecommons.org/ns#"
   xmlns:rdf="http://www.w3.org/1999/02/22-rdf-syntax-ns#"
   xmlns:svg="http://www.w3.org/2000/svg"
   xmlns="http://www.w3.org/2000/svg"
   xmlns:xlink="http://www.w3.org/1999/xlink"
   xmlns:sodipodi="http://sodipodi.sourceforge.net/DTD/sodipodi-0.dtd"
   xmlns:inkscape="http://www.inkscape.org/namespaces/inkscape"
   width="128.0px"
   height="128.0px"
   viewBox="0 0 128.0 128.0"
   version="1.1"
   id="SVGRoot"
   sodipodi:docname="bmusketeer1.svg"
   inkscape:version="1.0.1 (3bc2e813f5, 2020-09-07)">
  <defs
     id="defs18">
    <linearGradient
       id="linearGradient2811"
       osb:paint="solid">
      <stop
         style="stop-color:#464646;stop-opacity:1;"
         offset="0"
         id="stop2809" />
    </linearGradient>
    <clipPath
       id="z24339c1">
      <path
         id="use3421"
         d="m 675,275 q 31,-75 69,-101 19,-19 3,-40 -18,-16 -76,-45 -19,-9 -44,0 -103,43 -256,63 -19,1 -17,12 3,10 24,16 28,13 68,-1 85,-16 165,-32 22,-4 30,4 12,15 -21,116 c -7,17 48,25 55,8 z"
         style="fill:#1e1e1e;fill-opacity:1" />
    </clipPath>
    <clipPath
       id="z24339c2">
      <path
         id="use3424"
         d="m 379,366 q 69,-24 308,-55 13,-1 13,-12 0,-7 -25,-24 c -16,-10 -37,-11 -55,-8 q -4,0 -8,2 -130,37 -236,57 c -13,3 -9,45 3,40 z"
         style="fill:#1e1e1e;fill-opacity:1" />
    </clipPath>
    <clipPath
       id="z24339c3">
      <path
         id="use3427"
         d="m 320,564 q 93,-52 322,-72 27,-3 37,7 19,22 9,66 -16,91 -61,216 -10,25 -32,39 -18,6 -116,-27 -19,-9 -20,1 -1,10 20,28 52,49 74,91 19,34 48,15 60,-39 85,-90 16,-45 60,-248 9,-49 32,-69 16,-16 9,-28 -12,-13 -64,-42 -27,-15 -109,4 -177,28 -256,49 -22,1 -17,-12 21,-87 38,-126 c 5,-12 5,-30 -3,-40 q -13,-15 -28,-22 -25,-10 -34,-7 -10,6 -4,20 21,42 -13,146 -7,16 -36,45 -12,15 -3,28 10,13 31,30 12,10 31,-2 z"
         style="fill:#1e1e1e;fill-opacity:1" />
    </clipPath>
    <clipPath
       id="z30770c1">
      <path
         id="use860"
         d="m 284,319 c 106,-28 160,-47 165,-50 5,-5 6,-11 3,-17 -6,-8 -18,-14 -38,-17 -21,-4 -41,1 -61,10 -27,11 -55,21 -84,30 -33,9 -69,14 -106,22 -26,4 -28,13 -9,24 18,9 44,20 76,12 36,-9 36,-9 54,-14 z"
         style="fill:#e0b038;fill-opacity:1" />
    </clipPath>
    <clipPath
       id="z30770c2">
      <path
         id="use863"
         d="m 237,525 c 20,-37 37,-87 62,-146 8,-20 19,-31 14,-40 -3,-5 -9,-14 -29,-20 -17,-7 -57,-4 -54,14 10,34 2,95 -36,180 -10,22 -10,22 -15,33 -35,76 -87,138 -132,195 -6,7 -3,7 4,7 23,-4 94,-58 145,-149 27,-49 27,-49 41,-74 z"
         style="fill:#e0b038;fill-opacity:1" />
    </clipPath>
    <clipPath
       id="z30770c3">
      <path
         id="use866"
         d="m 194,513 c -2,0 -5,-2 -7,-2 -8,-3 -12,-1 -14,2 -4,5 -3,9 1,20 1,2 3,6 5,13 11,35 11,35 17,53 8,27 15,60 19,99 2,20 7,37 19,51 10,13 16,16 20,6 4,-12 5,-32 2,-57 -3,-22 -3,-22 -5,-33 -9,-55 -14,-91 -16,-111 -3,-19 -22,-37 -41,-41 z"
         style="fill:#e0b038;fill-opacity:1" />
    </clipPath>
    <clipPath
       id="z30770c4">
      <path
         id="use869"
         d="m 385,640 c 12,-48 26,-79 41,-93 14,-16 13,-29 -1,-37 -12,-7 -27,-16 -43,-27 -12,-9 -29,4 -59,14 -31,10 -81,22 -129,16 -19,-4 23,48 41,41 14,-4 63,-18 90,-23 15,-4 24,-3 29,3 3,4 4,17 -1,38 -5,20 -10,42 -16,65 -3,16 45,19 48,3 z"
         style="fill:#e0b038;fill-opacity:1" />
    </clipPath>
    <clipPath
       id="z30770c5">
      <path
         id="use872"
         d="m 256,698 c 6,1 12,0 20,-2 26,-8 66,-17 123,-25 5,-1 10,-4 11,-11 0,-4 -9,-11 -25,-20 -14,-8 -33,-9 -48,-3 -19,10 -62,22 -86,28 -11,2 -6,33 5,33 z"
         style="fill:#e0b038;fill-opacity:1" />
    </clipPath>
    <clipPath
       id="z30770c6">
      <path
         id="use875"
         d="m 550,305 c 24,-30 51,-68 80,-114 12,-22 23,-39 34,-50 6,-8 7,-16 4,-25 -4,-8 -14,-21 -34,-35 -19,-13 -35,-18 -47,-17 -14,1 -17,11 -10,25 7,15 8,28 4,41 -16,43 -34,87 -57,128 -23,40 -77,117 -82,126 -6,6 -11,13 -12,18 -2,7 1,10 11,8 16,-4 48,-33 94,-87 10,-12 10,-12 15,-18 z"
         style="fill:#e0b038;fill-opacity:1" />
    </clipPath>
    <clipPath
       id="z30770c7">
      <path
         id="use878"
         d="m 535,323 c 4,3 9,6 17,9 14,9 27,10 40,7 125,-37 193,-49 201,-38 6,8 8,26 7,51 -4,68 -12,118 -27,148 -11,21 -29,30 -43,30 -8,0 -19,-2 -23,-3 -17,-5 -20,1 -7,16 26,33 35,55 41,62 7,7 20,15 37,2 37,-29 65,-91 76,-189 6,-60 9,-100 25,-121 6,-10 9,-17 5,-23 -6,-7 -26,-18 -60,-31 -13,-5 -26,-2 -38,6 -13,8 -46,18 -95,31 -52,12 -98,21 -141,25 -8,1 -21,13 -15,18 z"
         style="fill:#e0b038;fill-opacity:1" />
    </clipPath>
    <clipPath
       id="z30770c8">
      <path
         id="use881"
         d="m 655,563 c 12,-46 26,-76 40,-90 12,-14 12,-27 0,-35 -11,-7 -25,-16 -41,-26 -11,-7 -23,-6 -33,1 -15,8 -32,16 -49,23 -18,6 -46,14 -55,16 -90,13 -39,33 15,24 17,-4 24,-9 71,-18 13,-3 22,-1 26,3 4,4 3,16 -2,35 -5,19 -11,39 -17,61 -5,14 42,21 45,6 z"
         style="fill:#e0b038;fill-opacity:1" />
    </clipPath>
    <clipPath
       id="z30770c9">
      <path
         id="use884"
         d="m 517,580 c 24,-5 76,-16 93,-23 14,-5 32,-2 45,6 14,9 21,16 21,20 0,6 -4,9 -10,10 -54,5 -108,14 -136,20 -12,2 -25,-31 -13,-33 z"
         style="fill:#e0b038;fill-opacity:1" />
    </clipPath>
    <clipPath
       id="z30770c10">
      <path
         id="use887"
         d="m 517,580 c -7,-6 -16,-12 -26,-15 -9,-3 -16,-2 -20,1 -5,3 -6,9 -2,21 8,24 13,49 11,72 -2,14 -7,118 -1,137 7,22 15,38 35,55 60,49 161,65 304,47 12,-2 26,-5 41,-9 34,-10 69,-26 103,-50 14,-10 16,-26 7,-43 -9,-15 -22,-43 -32,-88 -3,-10 -4,-19 -8,-22 -4,-3 -7,3 -11,15 -19,49 -36,81 -47,95 -12,15 -36,27 -71,36 -82,20 -158,17 -224,-10 -28,-12 -43,-28 -50,-44 -15,-35 -3,-131 4,-165 2,-12 -4,-26 -13,-33 z"
         style="fill:#e0b038;fill-opacity:1" />
    </clipPath>
    <clipPath
       id="z35584c1">
      <path
         id="use957"
         d="m 295,125 q 27,22 54,51 15,13 31,14 10,-1 17,-15 4,-15 -4,-46 -6,-21 -37,-35 -73,-28 -88,-21 -6,4 -4,17 4,12 31,35 z"
         style="fill:#9b9b9b;fill-opacity:1" />
    </clipPath>
    <clipPath
       id="z35584c2">
      <path
         id="use960"
         d="m 55,329 q -13,1 -15,10 -3,10 13,21 36,22 89,6 114,-45 256,-73 16,-3 17,-10 0,-13 -18,-21 -28,-10 -50,-3 -198,57 -292,70 z"
         style="fill:#9b9b9b;fill-opacity:1" />
    </clipPath>
    <clipPath
       id="z35584c3">
      <path
         id="use963"
         d="m 212,415 q -31,9 -7,20 33,15 93,-3 27,-9 58,-16 16,-6 18,-8 7,-7 2,-14 -7,-10 -33,-13 -12,0 -84,23 -22,6 -47,11 z"
         style="fill:#9b9b9b;fill-opacity:1" />
    </clipPath>
    <clipPath
       id="z35584c4">
      <path
         id="use966"
         d="m 208,515 q -31,9 -7,21 33,12 104,-7 24,-7 54,-17 16,-4 19,-8 7,-7 2,-14 -7,-10 -33,-13 -19,-1 -90,26 -22,7 -49,12 z"
         style="fill:#9b9b9b;fill-opacity:1" />
    </clipPath>
    <clipPath
       id="z35584c5">
      <path
         id="use969"
         d="m 196,626 q -10,-6 -43,-10 -12,-1 -14,3 -6,6 3,21 28,55 49,145 4,28 21,45 18,19 22,5 6,-18 -1,-51 c -4,-21 -4,-21 -6,-31 Q 211,677 207,652 c -2,-9 -2,-23 -11,-26 z"
         style="fill:#9b9b9b;fill-opacity:1" />
    </clipPath>
    <clipPath
       id="z35584c6">
      <path
         id="use972"
         d="m 348,723 q 12,-60 29,-79 19,-25 -2,-38 -19,-9 -46,-24 -18,-9 -35,3 -19,15 -46,24 -22,9 -52,17 c -9,2 2,29 11,26 q 24,-9 73,-19 19,-4 24,2 7,4 2,35 -3,27 -7,58 c -3,16 46,11 49,-5 z"
         style="fill:#9b9b9b;fill-opacity:1" />
    </clipPath>
    <clipPath
       id="z35584c7">
      <path
         id="use975"
         d="m 233,784 q 0,-1 4,-2 40,-13 128,-31 9,-1 9,-10 0,-7 -26,-18 c -15,-6 -34,-1 -49,5 q -40,13 -72,25 c -10,4 -3,36 6,31 z"
         style="fill:#9b9b9b;fill-opacity:1" />
    </clipPath>
    <clipPath
       id="z35584c8">
      <path
         id="use978"
         d="m 732,207 q 55,-10 104,-16 10,1 18,-11 0,-10 -20,-20 -33,-18 -98,5 c -38,10 -38,10 -57,15 q -10,1 -17,4 -61,16 -119,26 c -33,5 -33,5 -49,7 q -31,3 -63,9 -25,4 -5,19 21,15 60,15 4,-3 14,-2 c 29,-7 29,-7 44,-11 q 60,-16 135,-30 c 35,-7 35,-7 53,-10 z"
         style="fill:#9b9b9b;fill-opacity:1" />
    </clipPath>
    <clipPath
       id="z35584c9">
      <path
         id="use981"
         d="m 543,210 q -1,-31 2,-46 6,-16 -6,-26 -13,-10 -39,-20 -19,-6 -37,4 -10,7 3,20 21,33 28,75 c 4,27 4,27 6,41 q 9,76 14,169 3,24 11,40 6,10 13,3 4,-4 7,-18 c 2,-19 2,-19 3,-28 q 1,-19 0,-37 -1,-19 -1,-36 c -1,-21 -1,-21 -1,-31 q -1,-39 -2,-73 c -1,-25 -1,-25 -1,-37 z"
         style="fill:#9b9b9b;fill-opacity:1" />
    </clipPath>
    <clipPath
       id="z35584c10">
      <path
         id="use984"
         d="m 670,438 q 1,9 5,18 6,12 15,6 21,-18 26,-98 9,-84 16,-157 c 3,-28 3,-28 4,-42 q 4,-46 12,-66 10,-19 -3,-32 -15,-15 -43,-30 -22,-10 -46,-1 -13,7 1,24 16,30 22,120 c 0,25 0,25 0,37 q -6,127 -11,186 c 1,23 1,23 2,35 z"
         style="fill:#9b9b9b;fill-opacity:1" />
    </clipPath>
    <clipPath
       id="z35584c11">
      <path
         id="use987"
         d="m 547,351 q 52,-10 93,-15 22,-4 13,-17 -10,-13 -35,-16 -33,-3 -72,17 c -10,4 -9,33 1,31 z"
         style="fill:#9b9b9b;fill-opacity:1" />
    </clipPath>
    <clipPath
       id="z35584c12">
      <path
         id="use990"
         d="m 545,452 q 7,0 12,-1 37,-7 113,-13 c 12,0 9,-33 -2,-35 q -12,-4 -30,2 -51,12 -90,19 c -9,2 -12,28 -3,28 z"
         style="fill:#9b9b9b;fill-opacity:1" />
    </clipPath>
    <clipPath
       id="z35584c13">
      <path
         id="use993"
         d="m 642,566 q 87,-13 227,-14 55,0 62,-9 4,-10 -10,-22 -45,-34 -81,-26 -73,16 -198,37 c -33,5 -33,5 -49,8 q -3,0 -13,3 -85,9 -185,25 -19,1 -5,17 13,13 29,17 19,4 33,0 51,-15 108,-23 c 55,-9 55,-9 82,-13 z"
         style="fill:#9b9b9b;fill-opacity:1" />
    </clipPath>
    <clipPath
       id="z35584c14">
      <path
         id="use996"
         d="m 642,532 q 1,-13 3,-23 3,-12 -4,-17 -22,-19 -39,-28 -12,-4 -20,3 -6,4 1,13 9,15 10,60 c 0,53 0,53 0,80 q -13,213 -18,226 -9,36 23,83 10,18 17,21 10,1 16,-11 12,-30 9,-58 -1,-90 -2,-282 c 3,-45 3,-45 4,-67 z"
         style="fill:#9b9b9b;fill-opacity:1" />
    </clipPath>
    <clipPath
       id="z35584c15">
      <path
         id="use999"
         d="m 560,579 q -63,126 -233,259 -12,12 -3,13 9,4 20,-1 109,-40 223,-194 16,-24 26,-36 c 28,-37 -12,-82 -33,-41 z"
         style="fill:#9b9b9b;fill-opacity:1" />
    </clipPath>
    <clipPath
       id="z35584c16">
      <path
         id="use1002"
         d="m 638,599 q 75,102 169,211 19,19 49,17 102,-6 133,-13 10,-1 11,-7 0,-4 -13,-12 Q 842,743 765,677 707,628 642,566 c -16,-13 -16,17 -4,33 z"
         style="fill:#9b9b9b;fill-opacity:1" />
    </clipPath>
    <clipPath
       id="z30758c1">
      <path
         id="use1214"
         d="m 387,394 c 2,-43 7,-84 10,-123 1,-20 1,-20 2,-30 2,-34 4,-61 9,-80 5,-23 5,-40 -8,-48 -20,-13 -39,-18 -54,-20 -10,-2 -18,-1 -22,5 -5,4 -5,11 1,20 11,16 17,30 18,42 5,76 8,158 6,246 0,13 38,1 38,-12 z" />
    </clipPath>
    <clipPath
       id="z30758c2">
      <path
         id="use1217"
         d="m 397,271 c 44,-8 82,-15 115,-20 14,-3 19,-8 13,-16 -7,-9 -18,-16 -34,-17 -24,-3 -55,5 -92,23 -9,4 -12,32 -2,30 z" />
    </clipPath>
    <clipPath
       id="z30758c3">
      <path
         id="use1220"
         d="m 281,425 c -5,-71 -6,-114 -4,-128 2,-15 -2,-26 -11,-32 -15,-11 -31,-19 -47,-23 -9,-3 -16,-3 -21,2 -5,3 -6,10 0,19 10,16 19,33 24,52 4,16 11,56 21,120 2,13 38,3 38,-10 z" />
    </clipPath>
    <clipPath
       id="z30758c4">
      <path
         id="use1223"
         d="m 243,435 c -30,7 -61,18 -92,17 -9,-1 -15,4 -15,11 -2,8 1,15 7,20 13,11 30,23 52,34 6,3 13,0 21,-5 23,-17 104,-55 243,-110 18,-8 35,-16 50,-26 7,-6 14,-11 13,-16 -1,-4 -9,-6 -17,-3 -38,10 -77,23 -118,37 -25,8 -25,8 -38,12 -23,7 -46,13 -68,19 -25,7 -25,7 -38,10 z" />
    </clipPath>
    <clipPath
       id="z30758c5">
      <path
         id="use1226"
         d="m 609,292 c 48,-20 106,-48 174,-84 14,-8 29,-14 46,-17 14,-4 20,-13 15,-25 -6,-14 -18,-25 -32,-37 -15,-12 -25,-18 -33,-18 -9,0 -12,4 -11,13 0,20 -27,50 -80,90 -26,18 -53,38 -80,60 -4,4 -5,20 1,18 z" />
    </clipPath>
    <clipPath
       id="z30758c6">
      <path
         id="use1229"
         d="m 922,389 c -10,-25 -19,-59 -24,-103 -2,-10 -4,-17 -9,-20 -5,-3 -9,2 -11,14 -13,52 -25,81 -33,91 -8,7 -19,16 -37,21 -67,15 -121,16 -160,2 -14,-5 -22,-15 -25,-23 -7,-17 -12,-43 -14,-79 -1,-12 -1,-12 -1,-18 -4,-69 6,-121 20,-156 7,-19 6,-35 -7,-45 -32,-24 -55,-35 -64,-31 -10,2 -12,11 -6,22 12,24 16,53 16,89 -3,144 3,216 24,252 11,19 41,33 87,40 32,4 75,6 128,5 48,-2 80,-9 99,-18 18,-10 24,-24 17,-43 z" />
    </clipPath>
    <clipPath
       id="z30758c7">
      <path
         id="use1232"
         d="m 453,582 c 70,-11 144,-20 221,-31 50,-8 78,-17 87,-22 6,-5 8,-11 5,-17 -5,-9 -16,-17 -35,-22 -21,-6 -42,-4 -62,2 -125,36 -260,55 -405,63 -25,1 -30,11 -12,23 27,18 70,22 152,11 33,-5 33,-5 49,-7 z" />
    </clipPath>
    <clipPath
       id="z30758c8">
      <path
         id="use1235"
         d="m 400,704 c 40,-36 62,-61 72,-66 4,-3 7,-8 8,-14 0,-6 -2,-14 -8,-23 -6,-9 -13,-15 -19,-19 -13,-10 -46,-9 -49,7 -8,50 -73,121 -154,183 -23,17 -85,54 -155,93 -6,3 -7,6 1,8 34,5 101,-17 191,-76 45,-30 66,-52 69,-54 29,-26 29,-26 44,-39 z" />
    </clipPath>
    <clipPath
       id="z30758c9">
      <path
         id="use1238"
         d="m 356,743 c 12,42 20,93 24,154 1,22 6,42 18,59 10,14 17,17 21,8 6,-15 9,-37 6,-64 -3,-24 -3,-24 -4,-36 -7,-62 -10,-104 -10,-126 0,-56 -66,-50 -55,5 z" />
    </clipPath>
    <clipPath
       id="z30758c10">
      <path
         id="use1241"
         d="m 721,833 c 22,-53 43,-86 64,-100 12,-13 14,-26 4,-39 -11,-11 -35,-26 -72,-44 -13,-6 -27,-7 -43,-1 -72,26 -164,43 -274,55 -12,2 -1,36 11,34 17,-3 81,-13 237,-38 18,-3 30,-1 36,6 6,6 8,15 6,28 -7,34 -15,66 -25,94 -7,17 49,22 56,5 z" />
    </clipPath>
    <clipPath
       id="z30758c11">
      <path
         id="use1244"
         d="m 425,900 q 7,0 21,-1 93,-16 291,-27 12,-1 14,-10 0,-9 -30,-29 c -16,-10 -38,-9 -56,-5 q -136,27 -244,36 c -12,0 -8,36 4,36 z" />
    </clipPath>
    <clipPath
       id="z22823c1">
      <path
         id="use1432"
         d="m 493,424 c 32,-6 133,-15 302,-25 14,-1 24,-5 27,-11 3,-9 -2,-19 -14,-28 -39,-28 -73,-37 -101,-29 -51,12 -121,29 -208,47 -42,9 -42,9 -63,13 -70,14 -145,26 -223,40 -16,2 -19,10 -5,22 21,18 51,24 86,15 42,-13 87,-25 137,-33 41,-7 41,-7 62,-11 z"
         style="fill:#e0b038;fill-opacity:1" />
    </clipPath>
    <clipPath
       id="z22823c2">
      <path
         id="use1435"
         d="m 487,463 c 2,-13 4,-26 6,-39 4,-31 4,-31 6,-46 16,-126 16,-207 29,-241 3,-9 2,-17 -5,-23 -15,-13 -36,-25 -64,-36 -17,-7 -32,-8 -45,-3 -17,5 -18,15 -4,29 22,22 33,46 34,70 0,82 -1,155 -8,217 -3,29 -3,29 -5,44 -18,154 -73,226 -119,282 -23,26 -89,85 -164,128 -10,5 -16,8 -18,12 -4,4 0,8 14,9 34,1 81,-19 156,-68 60,-41 89,-79 114,-116 20,-32 50,-90 66,-178 5,-27 5,-27 7,-41 z"
         style="fill:#e0b038;fill-opacity:1" />
    </clipPath>
    <clipPath
       id="z22823c3">
      <path
         id="use1438"
         d="m 480,504 c 14,26 45,76 95,151 54,81 103,143 143,189 19,22 37,35 56,34 54,-3 106,-8 154,-10 20,-1 30,-4 31,-9 0,-6 -10,-15 -32,-25 C 811,781 741,746 719,726 649,664 575,582 500,481 c -5,-7 -9,-13 -13,-18 -8,-11 -13,29 -7,41 z"
         style="fill:#e0b038;fill-opacity:1" />
    </clipPath>
    <clipPath
       id="z39340c1">
      <path
         id="use1520"
         d="M 361,113 C 330,89 306,77 293,77 c -10,-1 -17,4 -18,12 -3,7 1,13 7,21 12,17 18,33 20,48 11,106 10,188 -10,313 -4,17 -8,31 -8,48 -1,15 18,45 31,45 12,0 20,-8 29,-17 11,-11 8,-31 8,-47 -1,-25 -3,-107 3,-206 4,-83 7,-112 12,-124 1,-6 6,-22 7,-27 2,-11 -4,-23 -13,-30 z"
         style="fill:#9b9b9b;fill-opacity:1" />
    </clipPath>
    <clipPath
       id="z39340c2">
      <path
         id="use1523"
         d="m 705,55 c -20,0 -61,10 -123,25 -78,18 -147,28 -221,33 -11,0 2,30 13,30 23,2 96,-2 124,-6 33,-5 33,-5 50,-8 126,-21 191,-37 194,-39 5,-5 6,-11 4,-15 -4,-10 -24,-20 -41,-20 z"
         style="fill:#9b9b9b;fill-opacity:1" />
    </clipPath>
    <clipPath
       id="z39340c3">
      <path
         id="use1526"
         d="m 570,174 c 2,-14 -10,-29 -22,-45 -10,-14 -59,-6 -50,8 18,28 18,75 16,336 0,15 45,7 45,-8 0,-30 8,-274 11,-291 z"
         style="fill:#9b9b9b;fill-opacity:1" />
    </clipPath>
    <clipPath
       id="z39340c4">
      <path
         id="use1529"
         d="m 566,259 c 69,-16 103,-27 105,-28 4,-5 6,-10 4,-14 -4,-7 -15,-11 -30,-14 -20,-5 -45,6 -78,16 -36,10 -36,10 -54,15 -23,6 -48,7 -75,12 -19,3 -22,11 -8,19 21,12 53,12 83,6 35,-8 35,-8 53,-12 z"
         style="fill:#9b9b9b;fill-opacity:1" />
    </clipPath>
    <clipPath
       id="z39340c5">
      <path
         id="use1532"
         d="m 561,382 c 25,-6 50,-12 77,-18 22,-6 34,-11 37,-13 4,-5 6,-10 4,-14 -4,-7 -15,-11 -30,-14 -16,-4 -44,8 -87,20 -33,9 -33,9 -49,13 -28,7 -57,9 -87,14 -19,2 -23,9 -8,18 17,10 57,11 95,4 32,-7 32,-7 48,-10 z"
         style="fill:#9b9b9b;fill-opacity:1" />
    </clipPath>
    <clipPath
       id="z39340c6">
      <path
         id="use1535"
         d="m 824,431 c -5,0 -10,1 -14,4 -13,6 -119,6 -251,30 -30,5 -30,5 -45,8 -64,11 -109,17 -162,27 -16,3 -23,53 -8,47 57,-22 211,-52 401,-65 26,-2 44,1 52,10 7,8 11,16 11,29 -1,12 -6,70 -26,174 -12,62 -30,103 -43,127 -8,14 -19,23 -36,20 -20,-4 -38,-11 -56,-16 -13,-4 -21,-6 -23,-3 -3,3 3,8 13,19 43,50 61,87 65,103 1,7 7,10 15,12 12,2 30,-8 54,-31 22,-23 39,-49 46,-78 44,-215 71,-328 87,-338 6,-5 9,-10 9,-15 0,-6 -10,-20 -34,-36 -24,-16 -40,-28 -55,-28 z"
         style="fill:#9b9b9b;fill-opacity:1" />
    </clipPath>
    <clipPath
       id="z39340c7">
      <path
         id="use1538"
         d="m 184,599 q -10,58 -32,114 -12,37 14,69 12,16 30,-2 19,-22 26,-57 7,-40 1,-72 -1,-34 -15,-58 -7,-7 -13,-7 -9,4 -11,13 z"
         style="fill:#9b9b9b;fill-opacity:1" />
    </clipPath>
    <clipPath
       id="z39340c8">
      <path
         id="use1541"
         d="m 304,645 q 10,60 27,81 9,9 21,3 10,-6 16,-19 7,-39 -35,-83 -1,-3 -3,-4 -10,-10 -18,-12 -4,-1 -8,8 -4,9 0,26 z"
         style="fill:#9b9b9b;fill-opacity:1" />
    </clipPath>
    <clipPath
       id="z39340c9">
      <path
         id="use1544"
         d="m 423,622 q 18,49 42,74 12,7 23,-2 9,-9 11,-23 1,-22 -9,-38 -15,-21 -46,-39 -12,-9 -21,-8 -6,-1 -7,10 -1,10 7,26 z"
         style="fill:#9b9b9b;fill-opacity:1" />
    </clipPath>
    <clipPath
       id="z39340c10">
      <path
         id="use1547"
         d="m 565,589 q 28,63 57,88 13,7 25,-3 10,-10 12,-27 0,-42 -71,-89 c -1,-1 -1,-1 -1,-1 q -13,-9 -24,-8 -6,0 -7,12 -1,10 9,28 z"
         style="fill:#9b9b9b;fill-opacity:1" />
    </clipPath>
    <clipPath
       id="z20013c1">
      <path
         id="use1678"
         d="m 254,304 c -7,-5 -18,-9 -45,-13 -9,-2 -21,0 -24,4 -5,5 -3,12 4,25 26,48 48,113 65,196 4,24 13,44 28,60 14,15 22,17 25,6 1,-7 4,-16 3,-25 -3,-25 -3,-25 -4,-38 -3,-24 -33,-147 -39,-175 -3,-14 -2,-32 -13,-40 z"
         style="fill:#e0b038;fill-opacity:1" />
    </clipPath>
    <clipPath
       id="z20013c2">
      <path
         id="use1681"
         d="m 752,475 c 8,-25 17,-49 25,-73 10,-32 28,-59 51,-80 17,-17 13,-31 -7,-46 -20,-15 -39,-30 -59,-42 -13,-9 -28,-9 -45,-2 -27,9 -104,21 -182,32 -39,5 -39,5 -59,8 -90,12 -187,27 -222,32 -14,3 -1,40 13,40 4,0 11,-1 19,-3 76,-19 139,-28 190,-34 39,-5 39,-5 58,-7 46,-6 90,-13 153,-16 12,-1 32,2 37,9 10,15 -1,73 -31,172 -4,20 52,29 59,10 z"
         style="fill:#e0b038;fill-opacity:1" />
    </clipPath>
    <clipPath
       id="z20013c3">
      <path
         id="use1684"
         d="m 530,530 c 66,-8 144,-12 234,-16 8,-1 12,-5 14,-11 0,-6 -8,-16 -26,-28 -17,-10 -39,-14 -59,-10 -58,10 -113,18 -163,26 -37,5 -37,5 -55,8 -60,8 -117,14 -169,20 -12,2 -9,38 4,38 3,0 7,0 11,0 22,-2 123,-18 154,-21 37,-4 37,-4 55,-6 z"
         style="fill:#e0b038;fill-opacity:1" />
    </clipPath>
    <clipPath
       id="z20013c4">
      <path
         id="use1687"
         d="m 475,536 c 0,232 -7,343 13,380 7,12 17,8 24,-6 11,-29 18,-155 18,-380 0,-26 0,-26 0,-39 0,-33 2,-137 4,-191 1,-24 1,-24 1,-36 2,-71 10,-118 24,-142 5,-11 0,-22 -14,-33 -17,-13 -40,-25 -70,-32 -14,-4 -25,1 -34,10 -6,5 -7,12 3,21 18,17 30,36 31,59 1,32 1,74 1,125 0,23 0,23 0,35 0,58 -1,157 -1,192 0,25 0,25 0,37 z"
         style="fill:#e0b038;fill-opacity:1" />
    </clipPath>
    <clipPath
       id="z23567c1">
      <path
         id="use1791"
         d="m 499,205 c 1,22 3,210 2,563 -1,14 -6,24 -13,31 -7,5 -20,5 -40,1 -23,-6 -45,-9 -65,-13 -25,-6 -35,-7 -32,1 1,4 8,11 24,21 54,32 77,53 104,81 20,21 31,35 44,35 10,0 20,-12 29,-36 11,-31 15,-72 12,-122 -22,-301 -24,-499 8,-590 7,-23 -3,-38 -40,-55 -24,-11 -41,-17 -55,-11 -12,4 -14,15 -2,30 14,19 21,40 24,64 z"
         style="fill:#9b9b9b;fill-opacity:1" />
    </clipPath>
    <clipPath
       id="z23567c2">
      <path
         id="use1794"
         d="m 266,425 c -30,44 -61,87 -96,126 -7,7 -12,16 -15,29 -5,18 -5,34 -1,47 3,14 13,19 31,12 19,-8 35,-25 52,-47 23,-33 38,-66 47,-96 7,-26 12,-47 9,-66 -2,-7 -6,-13 -10,-14 -7,-2 -13,2 -17,9 z"
         style="fill:#9b9b9b;fill-opacity:1" />
    </clipPath>
    <clipPath
       id="z23567c3">
      <path
         id="use1797"
         d="m 706,428 c 41,41 87,89 136,149 12,15 23,26 36,30 6,1 12,-4 19,-10 10,-11 11,-33 3,-67 -10,-41 -73,-86 -191,-138 -8,-4 -12,-3 -13,8 -2,10 2,20 10,28 z"
         style="fill:#9b9b9b;fill-opacity:1" />
    </clipPath>
    <clipPath
       id="z24101c1">
      <path
         id="use1865"
         d="m 236,316 c 47,-45 122,-158 138,-170 12,-11 12,-21 2,-30 -13,-9 -29,-15 -48,-19 -18,-4 -31,-4 -39,0 -8,4 -10,9 -4,17 10,20 -14,106 -68,204 -3,5 14,2 19,-2 z"
         style="fill:#e0b038;fill-opacity:1" />
    </clipPath>
    <clipPath
       id="z24101c2">
      <path
         id="use1868"
         d="m 222,580 c 1,-37 1,-69 2,-96 1,-19 1,-19 1,-28 2,-66 0,-99 4,-108 2,-11 -4,-23 -12,-30 -10,-10 -23,-17 -37,-22 -7,-3 -15,-5 -22,-1 -6,2 -4,9 -1,18 14,46 20,77 21,93 8,136 2,244 -19,326 -10,36 -3,70 22,102 6,8 14,9 22,1 7,-10 14,-37 16,-79 1,-21 1,-21 1,-32 1,-56 0,-95 1,-116 1,-19 1,-19 1,-28 z"
         style="fill:#e0b038;fill-opacity:1" />
    </clipPath>
    <clipPath
       id="z24101c3">
      <path
         id="use1871"
         d="m 407,422 c 16,-47 33,-76 52,-87 10,-11 10,-22 1,-32 -44,-36 -83,-43 -116,-21 -20,8 -97,32 -108,34 -30,6 -37,38 -7,32 39,-4 95,-21 129,-31 8,-3 15,-3 19,1 4,4 6,12 5,24 -7,28 -14,54 -21,77 -5,15 40,17 46,3 z"
         style="fill:#e0b038;fill-opacity:1" />
    </clipPath>
    <clipPath
       id="z24101c4">
      <path
         id="use1874"
         d="m 224,484 c 10,2 21,3 32,1 34,-10 90,-21 166,-30 6,-1 10,-5 11,-11 0,-5 -9,-12 -26,-22 -13,-8 -32,-9 -46,-3 -34,12 -98,29 -136,37 -9,2 -10,26 -1,28 z"
         style="fill:#e0b038;fill-opacity:1" />
    </clipPath>
    <clipPath
       id="z24101c5">
      <path
         id="use1877"
         d="m 406,696 c 16,-45 34,-75 52,-92 11,-12 12,-25 1,-34 -47,-38 -78,-40 -114,-23 -47,20 -96,27 -123,33 -9,2 -10,30 -1,28 6,0 50,-8 133,-24 6,-2 12,-1 16,2 5,4 7,12 6,23 -5,30 -13,58 -19,84 -3,16 43,18 49,3 z"
         style="fill:#e0b038;fill-opacity:1" />
    </clipPath>
    <clipPath
       id="z24101c6">
      <path
         id="use1880"
         d="m 219,756 q 10,3 24,-1 55,-13 177,-24 10,-1 12,-10 0,-9 -26,-25 c -14,-8 -33,-6 -49,-3 -1,0 -1,0 -2,0 q -75,19 -135,31 c -11,2 -11,30 -1,32 z"
         style="fill:#e0b038;fill-opacity:1" />
    </clipPath>
    <clipPath
       id="z24101c7">
      <path
         id="use1883"
         d="m 546,371 c -12,-12 -29,-19 -49,-15 -9,1 -11,7 -7,15 24,47 18,136 6,183 -9,31 -17,61 10,88 1,1 1,1 2,2 7,7 10,11 16,7 18,-14 28,-48 29,-100 0,-78 2,-127 4,-146 2,-12 -1,-27 -11,-34 z"
         style="fill:#e0b038;fill-opacity:1" />
    </clipPath>
    <clipPath
       id="z24101c8">
      <path
         id="use1886"
         d="m 704,377 c 67,-15 105,-17 115,-8 10,9 15,28 14,59 -2,30 -5,63 -5,101 -1,26 -6,44 -14,56 -6,7 -14,9 -30,6 -13,-3 -27,-4 -40,-6 -11,-2 -18,-2 -21,2 -3,2 1,7 11,15 34,26 61,52 82,75 9,10 22,12 36,7 8,-4 14,-17 23,-36 13,-32 21,-66 19,-105 -6,-85 -7,-142 3,-170 3,-12 6,-21 1,-25 -14,-12 -34,-20 -57,-29 -13,-5 -25,-6 -34,-1 -23,10 -57,18 -102,28 -38,8 -38,8 -57,12 -31,6 -65,9 -102,13 -12,2 -1,34 11,34 4,0 10,0 16,-1 26,-6 51,-10 75,-15 37,-8 37,-8 56,-12 z"
         style="fill:#e0b038;fill-opacity:1" />
    </clipPath>
    <clipPath
       id="z24101c9">
      <path
         id="use1889"
         d="m 648,389 c 0,184 -4,304 -5,363 -4,126 2,200 17,220 8,11 17,8 24,-6 12,-30 18,-163 18,-398 -1,-73 0,-137 2,-191 1,-21 1,-21 1,-31 2,-62 3,-112 6,-148 1,-23 8,-44 20,-64 5,-11 0,-22 -14,-33 -17,-13 -40,-25 -70,-32 -14,-4 -25,1 -34,10 -6,5 -7,12 3,21 19,17 32,37 33,62 0,48 -1,114 -1,196 0,21 0,21 0,31 z"
         style="fill:#e0b038;fill-opacity:1" />
    </clipPath>
    <clipPath
       id="z31570c1">
      <use
         xlink:href="#z31570d1"
         id="use2018"
         x="0"
         y="0"
         width="100%"
         height="100%" />
    </clipPath>
    <clipPath
       id="z31570c2">
      <use
         xlink:href="#z31570d2"
         id="use2021"
         x="0"
         y="0"
         width="100%"
         height="100%" />
    </clipPath>
    <clipPath
       id="z31570c3">
      <use
         xlink:href="#z31570d3"
         id="use2024"
         x="0"
         y="0"
         width="100%"
         height="100%" />
    </clipPath>
    <clipPath
       id="z31570c4">
      <use
         xlink:href="#z31570d4"
         id="use2027"
         x="0"
         y="0"
         width="100%"
         height="100%" />
    </clipPath>
    <clipPath
       id="z31570c5">
      <use
         xlink:href="#z31570d5"
         id="use2030"
         x="0"
         y="0"
         width="100%"
         height="100%" />
    </clipPath>
    <clipPath
       id="z31570c6">
      <use
         xlink:href="#z31570d6"
         id="use2033"
         x="0"
         y="0"
         width="100%"
         height="100%" />
    </clipPath>
    <clipPath
       id="z31570c7">
      <use
         xlink:href="#z31570d7"
         id="use2036"
         x="0"
         y="0"
         width="100%"
         height="100%" />
    </clipPath>
    <clipPath
       id="z31570c8">
      <use
         xlink:href="#z31570d8"
         id="use2039"
         x="0"
         y="0"
         width="100%"
         height="100%" />
    </clipPath>
    <clipPath
       id="z31570c9">
      <use
         xlink:href="#z31570d9"
         id="use2042"
         x="0"
         y="0"
         width="100%"
         height="100%" />
    </clipPath>
    <clipPath
       id="z31570c10">
      <use
         xlink:href="#z31570d10"
         id="use2045"
         x="0"
         y="0"
         width="100%"
         height="100%" />
    </clipPath>
    <clipPath
       id="z31570c11">
      <use
         xlink:href="#z31570d11"
         id="use2048"
         x="0"
         y="0"
         width="100%"
         height="100%" />
    </clipPath>
    <clipPath
       id="z31570c12">
      <use
         xlink:href="#z31570d12"
         id="use2051"
         x="0"
         y="0"
         width="100%"
         height="100%" />
    </clipPath>
  </defs>
  <sodipodi:namedview
     id="base"
     pagecolor="#ffffff"
     bordercolor="#666666"
     borderopacity="1.0"
     inkscape:pageopacity="0.0"
     inkscape:pageshadow="2"
     inkscape:zoom="2.8284271"
     inkscape:cx="82.495804"
     inkscape:cy="80.864622"
     inkscape:document-units="px"
     inkscape:current-layer="layer1"
     inkscape:document-rotation="0"
     showgrid="true"
     inkscape:window-width="1920"
     inkscape:window-height="1017"
     inkscape:window-x="1912"
     inkscape:window-y="-8"
     inkscape:window-maximized="1"
     inkscape:pagecheckerboard="true"
     showguides="true">
    <inkscape:grid
       type="xygrid"
       id="grid27" />
  </sodipodi:namedview>
  <metadata
     id="metadata21">
    <rdf:RDF>
      <cc:Work
         rdf:about="">
        <dc:format>image/svg+xml</dc:format>
        <dc:type
           rdf:resource="http://purl.org/dc/dcmitype/StillImage" />
        <dc:title></dc:title>
      </cc:Work>
    </rdf:RDF>
  </metadata>
  <g
     inkscape:label="Layer 1"
     inkscape:groupmode="layer"
     id="layer1">
    <path
       style="fill:#252525;fill-opacity:1;fill-rule:evenodd;stroke:#252525;stroke-width:5.12001;stroke-miterlimit:4;stroke-dasharray:none;stroke-opacity:1"
       id="path34"
       sodipodi:type="arc"
       sodipodi:cx="63.911613"
       sodipodi:cy="63.823223"
       sodipodi:rx="61.439995"
       sodipodi:ry="61.439995"
       sodipodi:start="0"
       sodipodi:end="6.2831808"
       sodipodi:open="true"
       sodipodi:arc-type="arc"
       d="M 125.35161,63.823223 A 61.439995,61.439995 0 0 1 63.911683,125.26322 61.439995,61.439995 0 0 1 2.4716187,63.823362 61.439995,61.439995 0 0 1 63.911406,2.3832283 61.439995,61.439995 0 0 1 125.35161,63.822946" />
    <ellipse
       style="fill:#f8f8f8;fill-opacity:1;stroke:none;stroke-width:5.48333;stroke-opacity:1"
       id="path1466"
       cx="65.0625"
       cy="63.6875"
       rx="41.1875"
       ry="41.0625" />
    <circle
       style="fill:#c75757;fill-opacity:0;stroke:#454242;stroke-width:2.3;stroke-miterlimit:4;stroke-dasharray:none;stroke-opacity:1"
       id="path4435"
       cx="64.142334"
       cy="63.842396"
       r="41.311134" />
    <path
       id="path3463"
       style="fill:#565352;fill-opacity:1;stroke:none;stroke-width:9.07692;stroke-miterlimit:4;stroke-dasharray:none;stroke-opacity:1"
       d="M 63.555885,4.91025 A 58.999554,59.000404 0 0 0 4.8984375,63.910125 58.999554,59.000404 0 0 0 63.899413,122.91 58.999554,59.000404 0 0 0 122.89844,63.910125 58.999554,59.000404 0 0 0 63.899413,4.91025 a 58.999554,59.000404 0 0 0 -0.343528,0 z m 0.290828,17.000989 a 41.997677,41.998283 0 0 1 0.0527,0 41.997677,41.998283 0 0 1 41.996327,41.998886 41.997677,41.998283 0 0 1 -41.996327,41.998885 41.997677,41.998283 0 0 1 -41.99828,-41.998885 41.997677,41.998283 0 0 1 41.94558,-41.998886 z" />
    <g
       id="g2133"
       transform="matrix(0.07914192,0,0,0.07914192,22.889565,24.010774)">
      <path
         id="z31570d1"
         d="m 322,184 q 22,-31 44,-56 10,-10 -2,-26 -39,-34 -60,-32 -10,1 -10,15 6,99 -110,201 -28,24 -42,39 -9,13 5,10 18,-1 42,-17 73,-49 118,-112 c 10,-15 10,-15 15,-22 z" />
      <path
         id="z31570d2"
         d="m 307,206 q 36,19 79,8 49,-9 98,-18 22,-4 27,-8 7,-7 4,-14 -7,-10 -32,-17 -25,-4 -51,5 -25,7 -54,14 -27,4 -56,8 c -9,1 -23,18 -15,22 z" />
      <path
         id="z31570d3"
         d="m 340,292 q 21,18 44,39 12,10 25,8 9,0 12,-11 4,-13 -5,-37 -10,-27 -82,-38 -13,-1 -18,0 -4,4 -3,14 4,9 27,25 z" />
      <path
         id="z31570d4"
         d="m 642,159 q 22,-36 44,-63 10,-12 -4,-26 -39,-31 -65,-29 -10,1 -9,16 12,82 -83,192 -3,0 -40,43 -7,15 7,11 16,-3 38,-19 58,-46 97,-100 c 10,-17 10,-17 15,-25 z" />
      <path
         id="z31570d5"
         d="m 627,184 q 30,12 106,4 129,-24 133,-26 9,-7 4,-15 -6,-10 -32,-19 -28,-6 -55,4 -33,10 -69,17 -34,4 -72,10 c -10,2 -24,21 -15,25 z" />
      <path
         id="z31570d6"
         d="m 665,268 q 24,16 50,35 13,9 26,7 10,-1 12,-14 1,-13 -9,-38 -12,-22 -90,-31 -13,-1 -19,2 -4,4 0,15 4,9 30,24 z" />
      <path
         id="z31570d7"
         d="m 295,392 q -1,-1 -2,-2 -31,-16 -50,-15 -15,4 -9,17 55,123 2,355 -9,27 -20,47 -18,40 13,86 1,1 4,5 7,15 19,9 13,-9 24,-42 19,-49 21,-125 9,-241 15,-294 c 3,-15 -5,-32 -17,-41 z" />
      <path
         id="z31570d8"
         d="m 312,433 q 75,-25 343,-56 25,-4 37,10 12,6 16,57 15,172 8,369 0,28 -10,37 -13,10 -84,3 -18,-1 -16,8 1,7 16,13 64,40 99,74 22,19 36,17 13,-4 24,-34 15,-49 11,-118 -19,-247 -21,-340 0,-40 12,-66 13,-22 2,-35 -10,-16 -61,-40 -21,-12 -104,12 -163,31 -325,48 c -15,3 3,46 17,41 z" />
      <path
         id="z31570d9"
         d="m 400,494 q -34,6 -9,21 36,18 103,6 45,-9 93,-18 24,-6 28,-9 7,-7 4,-15 -7,-10 -33,-17 -28,-6 -55,5 -28,10 -58,17 -34,7 -73,10 z" />
      <path
         id="z31570d10"
         d="m 412,617 q -10,-4 -38,-9 -10,-3 -14,2 -4,6 3,20 22,43 38,113 3,21 16,35 16,19 21,5 3,-9 3,-22 c -2,-20 -2,-20 -3,-30 q -12,-66 -14,-88 c -2,-9 -3,-22 -12,-26 z" />
      <path
         id="z31570d11"
         d="m 593,716 q 18,-52 36,-68 22,-24 1,-38 -18,-10 -42,-29 -16,-10 -35,-1 -48,27 -141,37 c -9,2 3,30 12,26 q 9,-4 98,-18 28,-4 34,6 6,4 0,30 -4,21 -11,46 c -3,16 42,24 48,9 z" />
      <path
         id="z31570d12"
         d="m 441,761 q 4,1 15,-1 46,-10 144,-16 10,-1 12,-9 0,-7 -19,-19 c -14,-8 -32,-9 -48,-9 q -3,-1 -5,0 -58,15 -102,24 c -10,2 -7,30 3,30 z" />
      <path
         pathLength="3333"
         clip-path="url(#z31570c1)"
         d="m 304,77 26,41 -42,77 -140,131"
         id="path2056" />
      <path
         pathLength="3333"
         clip-path="url(#z31570c2)"
         d="M 313,202 510,176"
         id="path2058" />
      <path
         pathLength="3333"
         clip-path="url(#z31570c3)"
         d="m 321,259 87,75"
         id="path2060" />
      <path
         pathLength="3333"
         clip-path="url(#z31570c4)"
         d="m 617,48 32,45 -67,115 -93,88"
         id="path2062" />
      <path
         pathLength="3333"
         clip-path="url(#z31570c5)"
         d="M 636,181 865,148"
         id="path2064" />
      <path
         pathLength="3333"
         clip-path="url(#z31570c6)"
         d="m 640,236 107,67"
         id="path2066" />
      <path
         pathLength="3333"
         clip-path="url(#z31570c7)"
         d="m 239,382 34,32 11,78 -40,399"
         id="path2068" />
      <path
         pathLength="3333"
         clip-path="url(#z31570c8)"
         d="m 303,395 36,12 338,-54 69,40 1,488 -23,32 -112,-50"
         id="path2070" />
      <path
         pathLength="3333"
         clip-path="url(#z31570c9)"
         d="M 391,504 616,481"
         id="path2072" />
      <path
         pathLength="3333"
         clip-path="url(#z31570c10)"
         d="m 365,613 31,30 33,141"
         id="path2074" />
      <path
         pathLength="3333"
         clip-path="url(#z31570c11)"
         d="m 421,622 148,-19 30,36 -41,70"
         id="path2076" />
      <path
         pathLength="3333"
         clip-path="url(#z31570c12)"
         d="M 445,754 606,732"
         id="path2078" />
    </g>
  </g>
</svg>
